<?xml version="1.0" standalone="no"?>
<!DOCTYPE svg PUBLIC "-//W3C//DTD SVG 20010904//EN"
 "http://www.w3.org/TR/2001/REC-SVG-20010904/DTD/svg10.dtd">
<svg version="1.0" xmlns="http://www.w3.org/2000/svg"
 width="1024.000000pt" height="1024.000000pt" viewBox="0 0 1024.000000 1024.000000"
 preserveAspectRatio="xMidYMid meet">

<g transform="translate(0.000000,1024.000000) scale(0.100000,-0.100000)"
fill="#000000" stroke="none">
<path d="M0 5120 l0 -5120 5120 0 5120 0 0 5120 0 5120 -5120 0 -5120 0 0
-5120z m5496 4181 c514 -88 968 -315 1337 -670 214 -206 365 -416 503 -696
118 -242 174 -415 226 -697 20 -108 22 -157 23 -393 0 -303 -10 -394 -71 -643
-54 -223 -117 -383 -230 -592 -61 -113 -184 -300 -212 -322 -9 -7 -3 5 14 27
135 173 293 477 366 700 85 264 136 632 124 900 -7 130 -40 402 -51 413 -7 7
-6 -5 5 -73 25 -150 38 -356 30 -465 -2 -28 -19 13 -23 56 -3 29 -9 40 -23 42
-15 2 -16 1 -5 -6 7 -5 12 -15 9 -22 -3 -9 -9 -8 -21 4 -9 10 -17 13 -17 7 0
-5 7 -14 16 -19 14 -8 14 -10 0 -21 -9 -8 -16 -10 -16 -6 0 4 -6 2 -13 -4 -11
-8 -14 -4 -15 19 -3 52 -5 59 -14 54 -4 -3 -7 5 -6 18 1 28 -12 181 -16 186
-2 1 -1 -86 1 -195 14 -547 -137 -1036 -448 -1448 -238 -317 -502 -536 -859
-714 -319 -159 -636 -234 -985 -232 -354 1 -659 73 -990 236 -249 122 -423
243 -613 429 -353 345 -577 776 -663 1281 -26 155 -36 467 -20 626 30 290 107
550 243 819 48 96 115 212 148 258 64 89 79 120 30 62 -39 -45 -39 -34 0 15
17 21 30 32 30 26 0 -7 5 -9 11 -6 6 4 8 14 5 22 -3 8 -2 12 3 9 5 -3 35 26
66 64 32 39 117 128 189 197 72 70 106 108 76 83 -30 -25 -97 -88 -150 -140
-52 -52 -98 -94 -102 -93 -4 2 -12 -6 -18 -17 -6 -11 -8 -20 -4 -20 3 0 1 -7
-6 -15 -7 -8 -16 -13 -20 -10 -5 3 -11 1 -15 -5 -4 -6 -10 -8 -15 -5 -4 3 -13
-2 -20 -10 -18 -21 -44 -19 -36 3 5 15 4 14 -9 -2 -12 -16 -17 -17 -30 -6 -8
7 -15 9 -15 4 0 -5 -4 -3 -9 5 -5 8 -16 11 -25 8 -23 -9 -120 -161 -206 -324
-41 -78 -77 -140 -79 -138 -2 2 32 71 74 152 138 263 257 425 451 613 410 397
893 624 1474 694 19 2 139 3 265 1 176 -2 258 -8 351 -24z m-2156 -975 c0 -2
-6 -9 -14 -15 -11 -9 -16 -9 -22 0 -4 7 -3 9 4 5 6 -3 13 -2 17 4 6 10 15 14
15 6z m-160 -20 c0 -3 -4 -8 -10 -11 -5 -3 -10 -1 -10 4 0 6 5 11 10 11 6 0
10 -2 10 -4z m40 -16 c0 -5 -10 -10 -22 -9 -22 0 -22 1 -3 9 11 5 21 9 23 9 1
1 2 -3 2 -9z m39 -4 c10 -12 8 -17 -7 -25 -17 -9 -20 -8 -17 7 2 9 4 20 4 25
1 11 7 9 20 -7z m-398 -487 c-11 -24 -20 -41 -20 -37 -1 12 31 89 35 85 3 -2
-4 -24 -15 -48z m-30 -76 c-12 -20 -14 -14 -5 12 4 9 9 14 11 11 3 -2 0 -13
-6 -23z m-46 -143 c-18 -58 -34 -100 -35 -95 -1 15 64 219 67 209 1 -5 -13
-56 -32 -114z m-59 -235 c-13 -60 -25 -100 -25 -87 -1 27 42 219 46 206 2 -5
-8 -58 -21 -119z m-35 -206 c-6 -45 -12 -103 -13 -128 -1 -41 -2 -42 -5 -11
-5 38 16 234 24 226 3 -3 0 -42 -6 -87z m-24 -366 c-2 -37 -3 -9 -3 62 0 72 1
102 3 68 2 -34 2 -93 0 -130z m4863 51 c0 -8 -4 -12 -10 -9 -5 3 -10 10 -10
16 0 5 5 9 10 9 6 0 10 -7 10 -16z m28 -114 c0 -27 -3 -50 -6 -50 -6 0 -7 20
-3 80 2 41 10 18 9 -30z m-4881 -117 c-2 -21 -4 -6 -4 32 0 39 2 55 4 38 2
-18 2 -50 0 -70z m10 -100 c-3 -10 -5 -2 -5 17 0 19 2 27 5 18 2 -10 2 -26 0
-35z m10 -70 c-3 -10 -5 -4 -5 12 0 17 2 24 5 18 2 -7 2 -21 0 -30z m10 -60
c-3 -10 -5 -4 -5 12 0 17 2 24 5 18 2 -7 2 -21 0 -30z m10 -55 c-3 -7 -5 -2
-5 12 0 14 2 19 5 13 2 -7 2 -19 0 -25z m10 -40 c-3 -8 -6 -5 -6 6 -1 11 2 17
5 13 3 -3 4 -12 1 -19z m10 -40 c-3 -8 -6 -5 -6 6 -1 11 2 17 5 13 3 -3 4 -12
1 -19z m10 -40 c-3 -8 -6 -5 -6 6 -1 11 2 17 5 13 3 -3 4 -12 1 -19z m22 -68
c0 -9 -4 -8 -9 5 -5 11 -9 27 -9 35 0 9 4 8 9 -5 5 -11 9 -27 9 -35z m81 -225
c0 -5 -5 -3 -10 5 -5 8 -10 20 -10 25 0 6 5 3 10 -5 5 -8 10 -19 10 -25z
m4210 -628 c0 -2 -12 -14 -27 -28 l-28 -24 24 28 c23 25 31 32 31 24z m-90
-102 c-24 -25 -46 -45 -49 -45 -3 0 15 20 39 45 24 25 46 45 49 45 3 0 -15
-20 -39 -45z m-70 -80 c-7 -9 -15 -13 -17 -11 -6 6 20 36 26 30 2 -2 -2 -10
-9 -19z m-110 -100 c-24 -25 -46 -45 -49 -45 -3 0 15 20 39 45 24 25 46 45 49
45 3 0 -15 -20 -39 -45z m-70 -58 c0 -2 -10 -12 -22 -23 l-23 -19 19 23 c18
21 26 27 26 19z m-50 -40 c0 -2 -10 -12 -22 -23 l-23 -19 19 23 c18 21 26 27
26 19z m926 -707 c263 -67 472 -256 564 -510 38 -102 60 -240 58 -355 -1 -89
-1 -89 -9 35 -14 238 -72 397 -202 558 -174 214 -498 322 -808 267 -277 -48
-474 -184 -603 -415 -20 -36 -36 -60 -36 -54 0 17 92 166 135 219 103 125 304
233 491 264 38 6 80 13 94 15 53 9 241 -5 316 -24z m-5013 -30 c69 -26 86 -46
194 -220 50 -80 140 -223 202 -318 61 -96 106 -172 100 -170 -10 3 -262 389
-390 596 -28 46 -47 64 -85 83 -47 23 -60 24 -271 27 -124 2 -223 8 -223 13 0
5 91 9 210 9 185 0 215 -2 263 -20z m1417 -837 c0 -465 -2 -844 -4 -842 -6 7
-16 723 -16 1212 l0 457 -212 0 -213 -1 -26 -42 c-69 -112 -99 -157 -103 -157
-2 0 26 49 62 110 l67 110 223 0 222 0 0 -847z m1250 823 c95 -31 172 -67 229
-106 220 -149 334 -399 329 -719 l-1 -116 -7 145 c-4 80 -15 176 -24 214 -71
299 -257 493 -540 566 -73 19 -110 20 -507 20 l-429 0 -2 -332 -3 -333 -5 343
-5 343 455 -3 c405 -4 461 -6 510 -22z m1060 -726 c0 -409 -3 -746 -5 -749 -3
-2 -5 329 -5 737 l0 742 -160 0 c-103 0 -160 4 -160 10 0 7 58 10 166 8 l166
-3 -2 -745z m-4183 608 c-2 -24 -4 -5 -4 42 0 47 2 66 4 43 2 -24 2 -62 0 -85z
m2280 105 c-20 -2 -52 -2 -70 0 -17 2 0 4 38 4 39 0 53 -2 32 -4z m226 0 c-35
-2 -91 -2 -125 0 -35 2 -7 3 62 3 69 0 97 -1 63 -3z m94 1 c-3 -3 -12 -4 -19
-1 -8 3 -5 6 6 6 11 1 17 -2 13 -5z m130 0 c-3 -3 -12 -4 -19 -1 -8 3 -5 6 6
6 11 1 17 -2 13 -5z m50 0 c-3 -3 -12 -4 -19 -1 -8 3 -5 6 6 6 11 1 17 -2 13
-5z m76 -1 c-7 -2 -21 -2 -30 0 -10 3 -4 5 12 5 17 0 24 -2 18 -5z m1014 -345
c-1 -68 -3 -15 -3 117 0 132 2 187 3 123 2 -64 2 -172 0 -240z m1758 304 c-3
-3 -11 0 -18 7 -9 10 -8 11 6 5 10 -3 15 -9 12 -12z m-5458 -44 c24 -27 57
-78 51 -78 -3 0 -19 20 -37 44 -26 37 -38 46 -69 49 l-37 4 36 1 c26 2 41 -4
56 -20z m-47 -154 c39 -1 49 4 78 35 18 20 29 27 23 16 -5 -11 -20 -30 -34
-43 -20 -19 -34 -23 -73 -20 l-49 3 -1 90 -1 90 6 -85 6 -85 45 -1z m1140 1
c-17 -25 -33 -45 -36 -45 -3 0 9 20 26 45 17 25 33 45 36 45 3 0 -9 -20 -26
-45z m-1263 13 c-3 -8 -6 -5 -6 6 -1 11 2 17 5 13 3 -3 4 -12 1 -19z m243 9
c0 -2 -10 -12 -22 -23 l-23 -19 19 23 c18 21 26 27 26 19z m67 -49 c44 -59 66
-97 34 -58 -34 41 -83 110 -78 110 3 0 22 -24 44 -52z m5051 37 c93 -22 189
-75 255 -141 32 -32 63 -67 69 -79 6 -11 -19 13 -57 53 -114 123 -269 181
-449 169 -48 -3 -67 -2 -46 3 59 13 162 10 228 -5z m-325 -29 c-112 -42 -225
-132 -267 -214 -9 -18 -19 -32 -22 -32 -2 0 3 14 12 32 21 41 103 128 154 163
42 29 146 75 170 74 8 0 -13 -10 -47 -23z m-4855 -18 c7 -7 12 -16 12 -22 0
-5 -6 -2 -12 7 -7 9 -31 18 -53 20 l-40 4 41 1 c22 1 45 -3 52 -10z m2749 5
c-20 -2 -52 -2 -70 0 -17 2 0 4 38 4 39 0 53 -2 32 -4z m-2706 -30 c10 -26 4
-83 -9 -83 -4 0 -7 25 -7 55 0 30 1 55 3 55 1 0 7 -12 13 -27z m2279 -499 c0
-285 -3 -520 -5 -523 -3 -2 -5 233 -5 524 0 291 3 526 6 523 3 -4 5 -239 4
-524z m605 482 c39 -20 88 -54 110 -77 l40 -43 -47 41 c-52 47 -107 78 -188
105 -39 13 -45 17 -20 13 19 -3 67 -20 105 -39z m-2985 -78 c26 2 50 10 58 20
6 9 12 12 12 7 0 -24 -35 -45 -75 -45 -50 0 -56 9 -53 83 l1 52 6 -60 6 -60
45 3z m1091 85 c-5 -10 -17 -27 -26 -38 -16 -19 -17 -19 -3 5 26 46 29 50 34
50 3 0 0 -8 -5 -17z m-1014 -35 c-3 -7 -5 -2 -5 12 0 14 2 19 5 13 2 -7 2 -19
0 -25z m152 -35 c-30 -41 -74 -83 -85 -83 -7 0 -23 15 -35 33 l-22 32 31 -29
32 -29 41 46 c40 46 65 65 38 30z m4 -67 c-15 -19 -32 -35 -37 -35 -6 -1 5 15
24 34 43 45 50 45 13 1z m1112 -40 c-26 -36 -49 -66 -51 -66 -3 0 16 31 43 69
26 39 49 68 51 66 2 -2 -17 -33 -43 -69z m-1297 57 c-10 -2 -28 -2 -40 0 -13
2 -5 4 17 4 22 1 32 -1 23 -4z m239 -15 c-3 -8 -6 -5 -6 6 -1 11 2 17 5 13 3
-3 4 -12 1 -19z m1120 -415 c-1 -81 -3 -17 -3 142 0 160 2 226 3 148 2 -78 2
-208 0 -290z m-1423 239 c24 -3 40 7 90 55 l61 58 -60 -62 c-48 -52 -65 -63
-91 -63 -40 0 -44 11 -42 113 l2 82 5 -90 6 -90 29 -3z m3191 117 c9 -17 15
-33 13 -35 -3 -2 -12 12 -21 31 -21 43 -13 47 8 4z m2420 0 c9 -17 15 -33 13
-35 -3 -2 -12 12 -21 31 -21 43 -13 47 8 4z m-5326 -51 c8 3 11 0 7 -7 -4 -6
-12 -11 -19 -11 -14 0 -77 60 -77 74 0 6 17 -6 38 -26 20 -19 43 -33 51 -30z
m692 45 c-5 -10 -17 -27 -26 -38 -16 -19 -17 -19 -3 5 26 46 29 50 34 50 3 0
0 -8 -5 -17z m3633 -78 c-13 -38 -24 -62 -24 -53 0 19 40 131 45 126 2 -2 -7
-34 -21 -73z m-4463 28 c-5 -10 -31 -38 -57 -63 l-48 -45 53 63 c53 63 70 77
52 45z m236 -238 c-2 -113 -7 -208 -10 -212 -4 -3 -7 97 -7 223 1 160 4 224
11 212 6 -11 9 -95 6 -223z m506 150 c-3 -9 -8 -14 -10 -11 -3 3 -2 9 2 15 9
16 15 13 8 -4z m1174 -27 c-3 -8 -6 -5 -6 6 -1 11 2 17 5 13 3 -3 4 -12 1 -19z
m2520 -25 c-3 -10 -5 -4 -5 12 0 17 2 24 5 18 2 -7 2 -21 0 -30z m-4462 -38
c25 -30 43 -55 38 -55 -4 0 -30 25 -56 55 -27 30 -44 55 -39 55 5 0 31 -25 57
-55z m-70 15 c10 -11 16 -20 13 -20 -3 0 -13 9 -23 20 -10 11 -16 20 -13 20 3
0 13 -9 23 -20z m215 7 c0 -2 -17 -19 -37 -38 l-38 -34 34 38 c33 34 41 42 41
34z m4335 -268 c48 -185 154 -305 320 -364 98 -34 240 -35 340 -1 75 26 102
26 41 1 -127 -53 -264 -57 -390 -11 -215 77 -330 256 -341 526 l-4 105 9 -96
c5 -53 16 -125 25 -160z m-4345 218 c0 -2 -12 -14 -27 -28 l-28 -24 24 28 c23
25 31 32 31 24z m-129 -44 c13 -16 12 -17 -3 -4 -10 7 -18 15 -18 17 0 8 8 3
21 -13z m119 -58 c18 -19 31 -37 29 -40 -3 -2 -23 13 -44 35 -22 22 -35 40
-29 40 6 0 25 -16 44 -35z m-266 -41 c3 -8 2 -12 -4 -9 -6 3 -10 10 -10 16 0
14 7 11 14 -7z m5466 -36 c13 -18 48 -64 78 -102 l55 -69 18 34 c10 19 18 30
19 26 0 -15 -30 -67 -40 -67 -5 0 -42 43 -82 95 l-73 94 -172 1 c-103 0 -174
4 -178 10 -4 7 56 10 173 10 l178 0 24 -32z m-5311 -47 c-1 -24 -2 -24 -8 5
-4 17 -11 37 -15 45 -4 8 0 5 8 -5 9 -11 16 -31 15 -45z m3428 12 c-3 -10 -5
-4 -5 12 0 17 2 24 5 18 2 -7 2 -21 0 -30z m-10 -45 c-3 -8 -6 -5 -6 6 -1 11
2 17 5 13 3 -3 4 -12 1 -19z m-3382 -127 c-7 -6 -65 50 -65 63 0 5 16 -5 35
-24 19 -18 32 -36 30 -39z m3362 47 c-3 -8 -6 -5 -6 6 -1 11 2 17 5 13 3 -3 4
-12 1 -19z m-367 -32 c0 -2 -8 -10 -17 -17 -16 -13 -17 -12 -4 4 13 16 21 21
21 13z m-64 -75 c-47 -48 -132 -95 -212 -117 -75 -20 -477 -33 -488 -15 -5 8
45 11 189 11 280 0 386 26 500 125 53 46 58 44 11 -4z m-2851 -22 c22 -23 31
-37 20 -31 -26 13 -82 72 -69 72 6 0 28 -19 49 -41z m-250 -53 c8 4 15 1 15
-5 0 -12 -11 -14 -34 -5 -9 3 -16 14 -16 23 1 14 2 14 11 -1 5 -10 16 -15 24
-12z m120 -106 c39 -40 56 -50 89 -53 l41 -4 -45 -1 c-43 -2 -49 1 -100 53
-30 30 -50 55 -44 55 5 0 32 -22 59 -50z m5747 -122 c81 -112 92 -128 84 -128
-5 0 -166 218 -166 225 0 14 14 -3 82 -97z m-5717 -96 c-3 -3 -11 0 -18 7 -9
10 -8 11 6 5 10 -3 15 -9 12 -12z m4103 -421 c48 -24 92 -75 92 -104 -1 -17
-4 -15 -16 12 -27 64 -98 100 -195 101 -84 0 -124 -14 -173 -59 -23 -22 -34
-28 -28 -16 19 37 69 71 127 86 47 13 150 2 193 -20z m-4209 -18 c8 -21 37
-86 66 -145 28 -60 48 -108 44 -108 -6 0 -104 202 -121 252 -9 25 -14 27 -76
31 l-67 3 70 2 71 2 13 -37z m349 30 c-21 -2 -55 -2 -75 0 -21 2 -4 4 37 4 41
0 58 -2 38 -4z m462 -170 c35 -98 76 -214 92 -258 15 -43 24 -75 19 -70 -5 6
-43 107 -85 225 -43 118 -82 227 -88 242 -9 24 -16 27 -67 31 l-56 3 61 2 61
2 63 -177z m478 163 c54 -28 75 -61 78 -123 l3 -58 -8 50 c-15 107 -50 128
-231 136 l-135 5 133 2 c98 2 140 -2 160 -12z m270 7 c-15 -2 -42 -2 -60 0
-18 2 -6 4 27 4 33 0 48 -2 33 -4z m285 0 c-18 -2 -48 -2 -65 0 -18 2 -4 4 32
4 36 0 50 -2 33 -4z m449 -151 c31 -86 72 -201 92 -254 20 -54 31 -98 26 -98
-6 0 -10 5 -10 11 0 6 -39 119 -87 250 l-87 238 -60 4 -61 3 65 2 65 2 57
-158z m555 152 c-6 -7 -349 -5 -356 1 -2 3 78 5 179 5 101 0 181 -3 177 -6z
m568 -18 c28 -13 62 -36 77 -52 31 -33 59 -103 57 -143 -1 -18 -4 -14 -9 16
-11 54 -31 92 -67 124 -53 50 -90 62 -218 69 l-120 7 115 1 c102 2 121 -1 165
-22z m313 17 c-15 -2 -42 -2 -60 0 -18 2 -6 4 27 4 33 0 48 -2 33 -4z m792 -3
c0 -5 -22 -10 -50 -10 -27 0 -50 5 -50 10 0 6 23 10 50 10 28 0 50 -4 50 -10z
m470 0 c0 -6 -72 -10 -195 -10 -123 0 -195 4 -195 10 0 6 72 10 195 10 123 0
195 -4 195 -10z m362 -129 c27 -73 47 -135 45 -137 -2 -3 -26 54 -52 126 -47
128 -48 130 -79 131 -17 1 -44 2 -59 3 -16 1 -32 -5 -37 -14 -8 -13 -9 -13
-10 1 0 26 11 30 78 27 l65 -3 49 -134z m318 129 c0 -5 -22 -10 -50 -10 -27 0
-50 5 -50 10 0 6 23 10 50 10 28 0 50 -4 50 -10z m-4093 -152 c-2 -29 -3 -8
-3 47 0 55 1 79 3 53 2 -26 2 -71 0 -100z m163 128 c0 -2 -8 -10 -17 -17 -16
-13 -17 -12 -4 4 13 16 21 21 21 13z m2777 -63 c-2 -16 -4 -5 -4 22 0 28 2 40
4 28 2 -13 2 -35 0 -50z m470 15 c-2 -13 -4 -5 -4 17 -1 22 1 32 4 23 2 -10 2
-28 0 -40z m-3277 8 c0 -2 -8 -10 -17 -17 -16 -13 -17 -12 -4 4 13 16 21 21
21 13z m-613 -128 c-2 -18 -4 -4 -4 32 0 36 2 50 4 33 2 -18 2 -48 0 -65z
m583 88 c0 -2 -8 -10 -17 -17 -16 -13 -17 -12 -4 4 13 16 21 21 21 13z m1130
-10 c0 -2 -8 -10 -17 -17 -16 -13 -17 -12 -4 4 13 16 21 21 21 13z m-140 -46
c-12 -16 -24 -30 -26 -30 -3 0 4 14 16 30 12 17 24 30 26 30 3 0 -4 -13 -16
-30z m567 8 c-3 -8 -6 -5 -6 6 -1 11 2 17 5 13 3 -3 4 -12 1 -19z m-1597 -2
c0 -2 -8 -10 -17 -17 -16 -13 -17 -12 -4 4 13 16 21 21 21 13z m1597 -183 c-2
-32 -3 -8 -3 52 0 61 1 87 3 58 2 -29 2 -78 0 -110z m-617 107 c-12 -16 -24
-30 -26 -30 -3 0 4 14 16 30 12 17 24 30 26 30 3 0 -4 -13 -16 -30z m-1394 -5
c-21 -16 -121 -21 -129 -7 -3 4 16 6 41 4 26 -2 58 1 72 7 35 14 38 13 16 -4z
m588 -140 c41 -65 73 -122 69 -125 -3 -3 -7 0 -9 5 -2 6 -43 71 -90 145 -47
74 -77 126 -66 115 11 -11 54 -74 96 -140z m2484 58 l-2 -88 -3 82 -4 82 -102
4 -102 3 108 2 107 2 -2 -87z m-751 20 c-3 -10 -5 -4 -5 12 0 17 2 24 5 18 2
-7 2 -21 0 -30z m-957 23 c0 -2 -8 -10 -17 -17 -16 -13 -17 -12 -4 4 13 16 21
21 21 13z m2844 -85 c15 -41 25 -76 23 -78 -4 -4 -57 138 -57 153 0 15 8 -3
34 -75z m-1477 37 c-3 -7 -5 -2 -5 12 0 14 2 19 5 13 2 -7 2 -19 0 -25z
m-3271 -6 c-32 -2 -63 1 -67 5 -4 4 22 6 59 3 l67 -5 -59 -3z m654 -73 c34
-50 59 -93 57 -96 -5 -4 -127 170 -127 182 0 14 13 -2 70 -86z m898 77 c3 -3
-27 -6 -66 -6 -40 0 -72 3 -72 8 0 8 129 6 138 -2z m3047 0 c11 -2 -13 -4 -52
-5 -40 0 -73 2 -73 7 0 6 79 5 125 -2z m-2765 -46 c-12 -16 -24 -30 -26 -30
-3 0 4 14 16 30 12 17 24 30 26 30 3 0 -4 -13 -16 -30z m1551 -45 c24 0 60 3
79 7 l35 7 -30 -14 c-63 -29 -145 -12 -179 37 -28 39 -17 39 18 1 29 -32 40
-37 77 -38z m-689 13 c-17 -17 -142 -24 -142 -9 0 8 11 10 33 6 17 -3 50 -2
72 3 22 6 42 10 45 11 2 1 -1 -4 -8 -11z m-542 -9 c0 -5 -49 -9 -115 -9 -63 0
-115 3 -115 8 0 4 52 8 115 9 67 1 115 -2 115 -8z m3045 1 c4 -6 -33 -10 -104
-10 -61 0 -111 4 -111 9 0 12 207 13 215 1z m-3403 -13 c-6 -6 -12 -28 -15
-47 l-4 -35 -1 36 c-1 19 3 40 10 47 16 16 23 15 10 -1z m355 -59 c-2 -13 -4
-5 -4 17 -1 22 1 32 4 23 2 -10 2 -28 0 -40z m2642 -8 c0 -10 -3 -8 -9 5 -12
27 -12 43 0 25 5 -8 9 -22 9 -30z m-3780 -210 c98 -28 161 -111 167 -218 l3
-67 -8 60 c-4 33 -18 79 -30 103 -67 130 -271 161 -391 58 l-25 -21 20 24 c51
59 172 88 264 61z m1642 -21 c4 -13 28 -80 53 -148 26 -68 45 -125 43 -128 -3
-2 -29 62 -58 142 l-54 145 -63 0 c-35 0 -61 3 -59 8 3 4 33 6 68 6 57 -2 64
-4 70 -25z m-1273 14 c-16 -2 -40 -2 -55 0 -16 2 -3 4 27 4 30 0 43 -2 28 -4z
m320 -45 l-2 -53 -3 47 -4 47 -47 4 -47 3 53 2 52 2 -2 -52z m450 27 c39 -23
72 -88 71 -136 -1 -30 -2 -28 -9 14 -18 103 -60 127 -240 138 l-125 7 135 -2
c115 -1 140 -4 168 -21z m969 -112 c95 -147 145 -231 118 -198 -9 11 -61 88
-115 172 l-98 152 -54 4 -53 3 56 2 57 2 89 -137z m233 129 c0 -4 -17 -6 -37
-4 -59 5 -63 10 -10 11 26 1 47 -3 47 -7z m238 1 c-16 -2 -40 -2 -55 0 -16 2
-3 4 27 4 30 0 43 -2 28 -4z m-2191 -35 c-3 -8 -6 -5 -6 6 -1 11 2 17 5 13 3
-3 4 -12 1 -19z m1950 -20 c-3 -7 -5 -2 -5 12 0 14 2 19 5 13 2 -7 2 -19 0
-25z m-1334 -179 c44 0 56 -3 42 -9 -30 -13 -89 -12 -103 2 -7 7 -11 36 -10
73 l2 60 3 -62 4 -63 62 -1z m1334 99 c-3 -8 -6 -5 -6 6 -1 11 2 17 5 13 3 -3
4 -12 1 -19z m-2308 -203 c0 -12 -46 41 -60 70 -6 11 6 2 25 -20 20 -22 36
-44 35 -50z m1160 -64 c29 -46 50 -85 48 -88 -5 -5 -117 172 -117 184 0 12 14
-8 69 -96z m585 19 c5 -20 3 -19 -8 5 -7 17 -16 41 -20 55 -5 20 -3 19 8 -5 7
-16 16 -41 20 -55z m-1348 -1 c22 -24 71 -33 109 -20 28 10 29 10 11 -4 -57
-44 -159 10 -155 82 0 11 4 6 9 -11 5 -15 16 -37 26 -47z m1182 64 c-21 -2
-57 -2 -80 0 -24 2 -7 4 37 4 44 0 63 -2 43 -4z m-1766 -74 c13 -7 46 -16 73
-20 l50 -6 -50 -2 c-33 -1 -59 5 -75 16 -34 23 -59 55 -60 73 0 8 9 1 20 -17
10 -17 29 -37 42 -44z m296 -55 c13 -20 22 -38 19 -40 -2 -2 -16 14 -31 36
-14 22 -23 40 -19 40 5 0 18 -16 31 -36z m1671 -34 c0 -10 -3 -8 -9 5 -12 27
-12 43 0 25 5 -8 9 -22 9 -30z"/>
<path d="M4805 9125 c-248 -35 -461 -101 -683 -210 -688 -338 -1148 -983
-1258 -1760 -23 -160 -22 -447 0 -618 70 -526 310 -1009 678 -1363 374 -360
879 -593 1392 -643 537 -53 1094 112 1566 463 111 82 319 286 410 401 331 418
493 886 493 1420 0 229 -19 386 -73 602 -222 882 -933 1535 -1845 1694 -150
27 -537 34 -680 14z m122 -685 l158 -150 238 0 c224 0 238 -1 257 -20 19 -19
20 -33 20 -257 l0 -238 166 -166 c133 -133 165 -170 160 -186 -4 -11 -78 -91
-166 -177 l-160 -158 0 -227 c0 -216 -1 -230 -21 -255 l-20 -26 -225 0 -225 0
-97 -93 c-53 -51 -129 -125 -167 -165 -52 -53 -77 -72 -95 -71 -25 1 -25 1 -3
7 13 4 97 80 186 170 l164 162 225 0 c168 0 229 3 242 13 16 12 18 33 17 247
l-2 233 166 166 c91 92 165 174 165 183 0 8 -74 88 -165 175 -91 88 -165 157
-165 152 0 -4 72 -76 160 -160 88 -84 160 -158 160 -164 0 -16 -41 -68 -48
-61 -2 3 1 12 8 21 7 9 11 18 8 21 -3 2 -13 -12 -23 -31 -15 -34 -18 -35 -30
-18 -10 13 -10 20 -2 25 9 6 9 8 0 8 -6 0 -19 -8 -29 -17 -16 -16 -16 -16 -10
5 4 13 3 22 -3 22 -6 0 -7 8 -4 18 6 15 4 15 -13 -2 -10 -11 -19 -24 -19 -30
-1 -6 -6 -10 -12 -9 -5 1 -23 -11 -38 -27 l-28 -29 24 -10 c16 -7 19 -10 7
-10 -9 -1 -20 4 -23 10 -5 7 -16 3 -31 -12 -13 -12 -21 -26 -18 -31 3 -5 0 -7
-8 -6 -7 2 -12 -2 -11 -8 2 -11 -33 -49 -46 -49 -3 0 -5 -4 -3 -8 1 -5 -2 -6
-8 -2 -6 3 -24 -7 -40 -24 l-30 -29 0 -196 c0 -127 -4 -204 -12 -221 l-11 -25
-202 0 -202 0 -144 -139 c-79 -77 -147 -142 -151 -146 -4 -4 -72 56 -152 134
l-144 141 -201 0 c-188 0 -201 1 -211 19 -6 12 -10 102 -10 223 l0 203 -135
135 c-74 74 -135 142 -135 150 0 9 -6 22 -12 30 -11 12 -10 12 3 2 16 -12 41
12 204 188 57 62 56 61 -24 -15 -47 -44 -90 -87 -97 -95 -15 -19 -64 -21 -64
-3 0 7 -6 13 -12 14 -7 0 -3 4 10 9 12 5 22 16 22 24 0 24 -12 46 -21 40 -5
-3 -7 -10 -3 -15 3 -5 0 -8 -8 -7 -7 2 -12 -4 -10 -14 1 -9 -2 -19 -8 -23 -6
-3 -7 0 -4 9 9 23 -9 20 -23 -4 -8 -12 -9 -21 -3 -25 6 -3 10 -11 10 -18 0 -6
-6 -3 -13 8 -13 17 -15 17 -37 -5 -14 -14 -19 -25 -12 -27 6 -3 3 -12 -9 -24
-25 -25 -37 -25 -14 1 10 11 14 20 8 20 -12 0 -48 -40 -56 -62 -6 -16 15 -40
126 -142 16 -15 34 -23 40 -20 7 4 8 3 4 -1 -4 -5 31 -47 77 -94 l85 -86 5
-170 c2 -93 1 -197 -3 -230 -6 -42 -9 6 -10 167 l-1 226 -172 166 c-154 149
-171 169 -162 189 5 12 82 92 170 177 l162 155 0 239 c-1 236 0 240 22 258 20
16 45 18 258 18 l236 0 151 150 c101 100 159 150 173 150 14 0 77 -52 179
-150z m1223 -97 c1 -5 2 -47 3 -95 l2 -87 -98 -3 c-54 -2 -101 -1 -103 1 -2 2
-4 46 -4 98 l0 93 100 0 c55 0 100 -3 100 -7z m325 -373 l0 -135 -127 -3 -128
-3 0 141 0 141 128 -3 127 -3 0 -135z m-345 -270 l0 -100 -102 0 -103 0 2 87
c1 49 2 94 3 101 0 9 27 12 100 12 l100 0 0 -100z m733 46 c18 -7 43 -26 57
-41 l25 -27 -1 -833 c0 -774 -1 -835 -18 -859 -9 -15 -28 -31 -41 -36 -29 -11
-776 -26 -827 -16 -44 8 -45 10 -53 146 l-7 105 389 4 c242 2 393 7 401 14 10
8 12 152 12 684 l-1 675 -29 29 -28 29 -209 0 -208 1 60 56 c33 30 74 62 90
69 43 19 343 19 388 0z m-3169 -224 c3 -5 -1 -9 -9 -9 -8 0 -12 4 -9 9 3 4 7
8 9 8 2 0 6 -4 9 -8z m106 -16 c0 -2 -8 -10 -17 -17 -16 -13 -17 -12 -4 4 13
16 21 21 21 13z m-36 -109 c17 -27 17 -28 -3 -15 -11 6 -17 16 -15 20 3 4 0 8
-6 8 -6 0 -8 5 -5 11 4 6 8 9 9 7 1 -2 10 -16 20 -31z m-39 -7 c3 -6 -1 -7 -9
-4 -18 7 -21 14 -7 14 6 0 13 -4 16 -10z m1997 -28 c4 -12 -1 -18 -13 -18 -14
0 -15 4 -8 18 5 10 11 18 13 18 2 0 6 -8 8 -18z m-1954 -17 c-3 -3 -9 2 -12
12 -6 14 -5 15 5 6 7 -7 10 -15 7 -18z m2036 9 c3 -8 2 -12 -4 -9 -6 3 -10 10
-10 16 0 14 7 11 14 -7z m-1786 -384 l-2 -165 -6 155 c-3 85 -7 151 -9 145 -1
-5 -4 -18 -6 -28 -2 -11 -7 -22 -11 -25 -4 -4 -4 1 -1 11 6 15 3 17 -16 12
-15 -4 -18 -4 -8 3 8 6 10 15 6 22 -6 10 -11 9 -20 -4 -12 -15 -13 -15 -17 2
-6 22 25 27 43 6 10 -12 13 -12 25 3 18 25 17 33 -3 27 -14 -5 -15 -4 -4 4 9
7 10 12 2 16 -6 4 -14 0 -17 -8 -3 -9 -10 -16 -16 -16 -5 0 -6 6 -1 13 15 25
11 34 -15 29 -23 -5 -24 -6 -7 -12 12 -4 15 -9 8 -13 -7 -4 -20 5 -31 20 -30
44 -32 50 -17 50 8 0 11 -5 8 -10 -3 -6 -1 -7 5 -3 6 4 9 12 6 20 -6 15 -36
17 -45 3 -8 -12 -29 0 -29 16 0 8 3 8 9 -1 6 -10 10 -9 14 8 4 17 2 20 -16 15
-22 -6 -22 -6 -2 10 19 16 19 16 -10 11 -26 -4 -28 -4 -13 8 17 12 17 14 0 28
-9 9 -23 14 -30 12 -7 -1 -8 0 -2 3 5 2 7 10 4 16 -4 7 46 -40 110 -103 l116
-115 -2 -165z m1730 335 c-3 -3 -9 2 -12 12 -6 14 -5 15 5 6 7 -7 10 -15 7
-18z m-218 -123 c0 -4 -10 -13 -22 -21 -23 -14 -23 -14 -4 8 20 22 26 25 26
13z m-2060 -152 c21 -11 48 -31 59 -46 20 -26 21 -36 21 -391 l0 -363 23 -9
c12 -4 76 -13 142 -20 252 -26 467 -101 710 -248 91 -55 255 -174 254 -183 -2
-9 -177 -170 -186 -170 -4 0 -48 29 -98 65 -49 36 -153 96 -230 135 -76 38
-134 70 -129 70 27 0 278 -136 359 -195 50 -36 93 -65 96 -65 3 0 43 35 89 77
l83 77 -44 38 c-43 37 -67 49 -53 26 4 -7 3 -8 -5 -4 -6 4 -9 11 -6 16 13 21
-280 188 -445 253 -108 43 -250 75 -402 92 -122 13 -146 18 -160 36 -16 19
-18 53 -18 381 l0 360 -28 28 c-28 28 -87 51 -127 49 -14 0 -9 -5 15 -15 l35
-14 -32 5 -33 5 -2 -238 c0 -130 -4 -214 -8 -187 -8 63 -11 445 -3 458 8 13
78 0 123 -23z m485 -19 c3 -5 2 -12 -3 -15 -5 -3 -9 1 -9 9 0 17 3 19 12 6z
m-495 -11 c8 -5 11 -10 5 -10 -5 0 -17 5 -25 10 -8 5 -10 10 -5 10 6 0 17 -5
25 -10z m2450 -525 c0 -569 12 -519 -121 -530 -46 -3 -110 -11 -143 -16 -32
-6 -60 -8 -63 -6 -6 6 106 24 202 33 44 3 86 11 93 16 9 8 12 118 12 489 0
264 -2 479 -5 479 -14 0 -106 -52 -101 -57 3 -3 21 4 41 16 49 29 55 27 54
-16 -1 -21 -3 -30 -6 -20 -4 14 -8 15 -18 7 -11 -9 -12 -7 -8 10 l6 22 -43
-22 c-23 -12 -39 -16 -35 -9 5 7 3 10 -6 7 -8 -3 -13 -14 -11 -24 2 -16 1 -17
-7 -4 -15 21 -15 16 -15 -343 l-1 -309 -26 -22 c-19 -16 -46 -25 -89 -30 -152
-17 -387 -95 -540 -179 -156 -85 -256 -160 -467 -355 -156 -143 -221 -195
-331 -266 -78 -51 -222 -121 -222 -108 0 4 30 20 66 36 144 63 285 165 484
351 287 267 479 389 756 478 60 19 156 43 214 53 58 9 113 24 123 32 16 14 17
43 17 339 l0 325 30 26 c33 29 128 82 148 82 9 0 12 -104 12 -485z m-2393 413
c-2 -13 -4 -5 -4 17 -1 22 1 32 4 23 2 -10 2 -28 0 -40z m0 -65 c-3 -10 -5 -4
-5 12 0 17 2 24 5 18 2 -7 2 -21 0 -30z m2360 -20 c-3 -10 -5 -4 -5 12 0 17 2
24 5 18 2 -7 2 -21 0 -30z m-1860 -35 c-3 -7 -5 -2 -5 12 0 14 2 19 5 13 2 -7
2 -19 0 -25z m14 -65 c13 -16 12 -17 -3 -4 -10 7 -18 15 -18 17 0 8 8 3 21
-13z m52 -20 c-7 -2 -19 -2 -25 0 -7 3 -2 5 12 5 14 0 19 -2 13 -5z m200 0
c-13 -2 -35 -2 -50 0 -16 2 -5 4 22 4 28 0 40 -2 28 -4z m105 0 c-10 -2 -28
-2 -40 0 -13 2 -5 4 17 4 22 1 32 -1 23 -4z m49 1 c-3 -3 -12 -4 -19 -1 -8 3
-5 6 6 6 11 1 17 -2 13 -5z m63 -49 c19 -19 32 -35 29 -35 -3 0 -20 16 -39 35
-19 19 -32 35 -29 35 3 0 20 -16 39 -35z m-507 -50 c19 -4 110 -5 203 -2 93 3
180 1 192 -4 13 -5 92 -78 176 -162 84 -83 105 -107 47 -52 -58 56 -130 123
-159 150 l-54 50 -218 5 c-196 5 -220 7 -239 24 -12 11 -21 24 -21 29 0 6 9 1
20 -11 11 -11 35 -24 53 -27z m-603 -592 c14 -7 19 -13 11 -13 -8 0 -23 7 -33
17 -17 15 -18 35 -16 252 l2 236 6 -240 5 -239 25 -13z m148 -20 c-21 -2 -57
-2 -80 0 -24 2 -7 4 37 4 44 0 63 -2 43 -4z m120 -10 c-16 -2 -40 -2 -55 0
-16 2 -3 4 27 4 30 0 43 -2 28 -4z m75 -10 c-7 -2 -21 -2 -30 0 -10 3 -4 5 12
5 17 0 24 -2 18 -5z m102 -18 c53 -17 34 -18 -35 0 -30 7 -44 13 -30 13 14 0
43 -5 65 -13z m124 -36 c34 -12 60 -23 58 -25 -2 -2 -35 7 -73 20 -38 14 -64
25 -58 25 5 1 38 -8 73 -20z m1536 -3 c-44 -12 -91 -26 -105 -30 -14 -5 -22
-5 -18 -1 11 11 151 53 178 53 14 0 -11 -10 -55 -22z m-210 -75 c-145 -69
-277 -164 -486 -351 -52 -47 -115 -100 -140 -119 -42 -31 -42 -31 6 11 27 23
92 81 145 128 119 107 176 153 270 220 74 53 253 151 274 149 6 0 -25 -17 -69
-38z m810 -98 c9 -41 53 -100 90 -123 24 -15 50 -20 103 -20 94 0 102 -4 102
-51 l0 -39 -450 0 c-247 0 -450 3 -450 8 0 4 200 6 445 4 l445 -2 0 30 0 30
-75 0 c-56 0 -86 5 -116 20 -43 23 -97 90 -106 132 l-5 28 -157 3 -156 3 161
2 162 2 7 -27z m-329 -41 c-23 -44 -65 -91 -97 -107 -33 -17 -194 -21 -184 -5
3 6 43 10 88 10 102 0 141 22 178 99 13 28 25 47 27 42 2 -5 -4 -23 -12 -39z
m-279 -154 c-3 -8 -6 -5 -6 6 -1 11 2 17 5 13 3 -3 4 -12 1 -19z m-457 -62
c83 -68 216 -155 292 -192 71 -34 81 -57 42 -93 l-28 -26 22 26 c12 14 22 31
22 37 0 6 -33 28 -72 48 -91 46 -217 128 -286 188 -30 25 -58 46 -62 46 -16 0
-150 -122 -145 -131 4 -5 -1 -6 -10 -3 -9 4 -13 10 -8 15 21 21 158 139 162
139 2 0 34 -24 71 -54z m-170 -141 c13 -14 21 -25 18 -25 -2 0 -15 11 -28 25
-13 14 -21 25 -18 25 2 0 15 -11 28 -25z m-290 -39 c0 -2 -8 -10 -17 -17 -16
-13 -17 -12 -4 4 13 16 21 21 21 13z m490 -92 c0 -2 -9 0 -20 6 -11 6 -20 13
-20 16 0 2 9 0 20 -6 11 -6 20 -13 20 -16z"/>
<path d="M4745 8563 c11 -3 37 -21 58 -41 20 -20 37 -33 37 -30 0 16 -77 78
-95 77 l-20 -1 20 -5z"/>
<path d="M4940 8395 c47 -47 87 -85 90 -85 2 0 -33 38 -80 85 -47 47 -87 85
-90 85 -2 0 33 -38 80 -85z"/>
<path d="M4617 8282 l-132 -132 -215 -2 -215 -3 -3 -210 -2 -210 -108 -111
c-59 -61 -122 -128 -141 -148 l-35 -36 142 -143 142 -143 0 -212 0 -212 200 0
200 0 144 -140 c79 -77 148 -140 152 -140 5 0 74 65 155 145 l146 146 197 -1
c109 -1 201 1 204 5 3 3 5 96 3 206 l-3 201 146 147 146 147 -140 139 -140
139 0 208 c0 195 -1 208 -19 218 -12 6 -101 10 -221 10 l-202 0 -134 132 -134
131 -133 -131z m205 -369 c35 -48 66 -91 70 -96 4 -7 47 -4 117 7 61 9 115 15
120 12 7 -5 -5 -106 -24 -207 -7 -36 -6 -37 79 -103 47 -36 88 -71 91 -76 3
-5 -36 -39 -88 -75 l-93 -65 17 -118 c10 -64 16 -118 16 -118 -1 -1 -53 5
-116 13 -95 12 -115 13 -121 1 -23 -39 -126 -178 -133 -178 -6 0 -106 132
-132 175 -9 15 -18 16 -82 6 -40 -6 -91 -11 -113 -11 l-42 0 6 48 c3 26 8 76
11 112 l6 66 -90 69 c-50 39 -91 73 -91 76 0 5 96 83 162 131 16 12 16 21 3
123 -8 61 -17 116 -20 123 -6 15 9 15 120 -3 50 -8 95 -15 101 -15 6 0 26 21
44 48 63 90 104 142 111 142 4 0 36 -39 71 -87z"/>
<path d="M4805 7891 c79 -107 86 -114 122 -108 27 4 27 4 -4 6 -29 1 -41 12
-103 96 -39 52 -72 95 -75 95 -3 0 25 -40 60 -89z"/>
<path d="M4436 7806 c27 -7 79 -16 115 -19 l64 -5 -65 13 c-35 7 -87 15 -115
18 l-50 5 51 -12z"/>
<path d="M5045 7810 c-27 -7 -27 -8 -5 -8 14 0 39 4 55 8 27 7 27 8 5 8 -14 0
-38 -4 -55 -8z"/>
<path d="M4968 7793 c6 -2 18 -2 25 0 6 3 1 5 -13 5 -14 0 -19 -2 -12 -5z"/>
<path d="M5091 7694 c0 -11 3 -14 6 -6 3 7 2 16 -1 19 -3 4 -6 -2 -5 -13z"/>
<path d="M5082 7645 c0 -16 2 -22 5 -12 2 9 2 23 0 30 -3 6 -5 -1 -5 -18z"/>
<path d="M4421 7624 c0 -11 3 -14 6 -6 3 7 2 16 -1 19 -3 4 -6 -2 -5 -13z"/>
<path d="M5071 7593 c-1 -13 177 -158 185 -151 3 3 -36 35 -85 72 -49 37 -92
72 -95 79 -3 9 -5 9 -5 0z"/>
<path d="M4333 7520 c-41 -31 -51 -45 -49 -65 2 -13 -1 -22 -5 -19 -5 3 -9 13
-9 22 0 12 -3 13 -12 4 -9 -9 -8 -15 4 -24 9 -7 48 -38 88 -68 l72 -55 -7 -95
c-3 -52 -9 -104 -12 -114 -5 -18 -1 -19 68 -11 152 17 147 18 198 -56 25 -36
55 -78 67 -94 l21 -28 67 97 c75 107 64 103 195 85 45 -6 84 -9 86 -7 9 9 -27
211 -40 225 -15 14 -21 6 -16 -21 1 -5 -9 -2 -23 8 -30 19 -39 20 -31 4 4 -7
-1 -4 -11 7 -13 16 -16 17 -11 3 3 -10 2 -20 -4 -24 -6 -4 -5 -12 3 -22 12
-15 11 -16 -5 -3 -10 8 -16 20 -13 27 2 6 -5 22 -16 34 -11 12 -17 24 -14 27
8 8 -13 33 -28 33 -6 0 -3 -5 8 -11 15 -9 16 -13 5 -20 -12 -8 -11 -12 4 -23
15 -12 13 -13 -21 -11 -22 1 -45 5 -52 10 -9 6 -10 3 0 -15 9 -18 9 -21 0 -15
-7 4 -16 2 -20 -5 -5 -8 -9 -7 -13 5 -4 9 -3 13 3 10 6 -3 10 -1 10 4 0 6 -6
11 -12 11 -7 0 -3 7 9 15 19 14 30 61 11 49 -4 -3 -5 -10 -2 -17 2 -7 -7 -19
-20 -27 -14 -7 -23 -18 -19 -23 3 -6 1 -7 -5 -3 -9 5 -9 13 -2 26 8 16 8 18
-5 14 -8 -4 -15 -16 -15 -28 0 -16 -2 -18 -9 -6 -6 8 -7 18 -5 22 3 4 -2 8
-11 8 -9 0 -14 -4 -11 -8 2 -4 -4 -8 -15 -8 -10 0 -19 4 -19 8 0 4 5 8 11 8 5
0 7 5 4 10 -4 6 -11 8 -16 5 -13 -9 -11 -43 4 -48 6 -3 2 -4 -10 -4 -18 1 -22
6 -17 20 4 14 2 18 -7 15 -8 -3 -14 -15 -14 -28 0 -13 -6 -25 -12 -27 -13 -5
-11 44 2 69 4 7 -2 3 -13 -9 -24 -27 -32 -29 -32 -8 0 8 -4 15 -10 15 -5 0
-10 7 -10 16 0 8 5 12 10 9 6 -3 10 -1 10 5 0 7 -7 9 -16 6 -9 -3 -18 -6 -20
-6 -3 0 2 -13 11 -30 14 -27 14 -30 0 -30 -8 0 -15 7 -15 16 0 14 -3 14 -15 4
-18 -15 -20 -34 -2 -24 6 4 8 3 4 -1 -4 -5 -14 -10 -22 -11 -12 -2 -12 2 -5
17 6 10 7 19 3 19 -4 0 -2 4 5 8 7 5 10 16 6 25 -7 20 -20 22 -30 5 -4 -7 -3
-8 4 -4 14 8 14 -1 2 -29 -7 -16 -9 -17 -9 -3 -1 9 -5 19 -10 22 -4 3 -7 -9
-5 -27 1 -17 0 -26 -3 -19 -2 6 -11 12 -19 12 -8 0 -14 5 -14 11 0 5 5 7 11 3
8 -4 8 -1 1 12 -5 11 -7 24 -5 31 2 6 -5 17 -17 23 -16 8 -24 8 -35 -3 -8 -8
-11 -18 -7 -22 4 -4 -2 -3 -13 3 -11 5 -32 15 -47 22 -47 22 -42 46 20 90 30
22 51 40 46 40 -5 0 -32 -18 -61 -40z m83 -137 c-10 -13 -22 -20 -25 -17 -3 3
-1 8 4 12 6 4 10 13 11 20 2 30 4 32 17 20 11 -10 10 -16 -7 -35z m314 -73 c0
-5 -5 -10 -11 -10 -5 0 -7 5 -4 10 3 6 8 10 11 10 2 0 4 -4 4 -10z m-129 -27
c13 -16 12 -17 -3 -4 -10 7 -18 15 -18 17 0 8 8 3 21 -13z m475 -77 c-2 -6 -5
-1 -5 12 -1 12 -6 22 -12 22 -5 0 -7 -5 -3 -12 4 -7 3 -8 -5 -4 -9 6 -9 11 0
22 11 13 6 18 -16 15 -5 -1 -1 6 10 14 19 15 20 14 28 -21 4 -21 5 -42 3 -48z"/>
<path d="M4319 7463 c-13 -16 -12 -17 4 -4 9 7 17 15 17 17 0 8 -8 3 -21 -13z"/>
<path d="M4337 7453 c-14 -13 -6 -25 13 -20 10 3 21 1 24 -4 2 -5 3 -4 2 3 -2
7 -11 12 -21 10 -10 -2 -14 1 -10 7 7 12 2 15 -8 4z"/>
<path d="M4616 7395 c-11 -8 -17 -17 -14 -20 2 -3 13 4 23 15 21 23 18 25 -9
5z"/>
<path d="M5131 7396 c-9 -11 -9 -15 1 -18 7 -3 -5 -16 -27 -32 -22 -16 -33
-26 -23 -23 18 6 118 77 118 84 0 2 -10 -3 -22 -11 -28 -20 -39 -20 -32 -1 8
19 0 19 -15 1z"/>
<path d="M4650 7391 c0 -6 5 -13 10 -16 6 -3 10 1 10 9 0 9 -4 16 -10 16 -5 0
-10 -4 -10 -9z"/>
<path d="M5040 7381 c0 -25 6 -27 13 -6 4 8 2 17 -3 20 -6 4 -10 -3 -10 -14z"/>
<path d="M4966 7382 c-3 -6 1 -15 8 -21 8 -7 17 -8 20 -3 3 6 -1 15 -8 21 -8
7 -17 8 -20 3z"/>
<path d="M5008 7383 c7 -3 16 -2 19 1 4 3 -2 6 -13 5 -11 0 -14 -3 -6 -6z"/>
<path d="M4874 7362 c3 -6 -2 -13 -11 -15 -14 -4 -13 -5 5 -6 23 -1 30 13 10
25 -6 4 -8 3 -4 -4z"/>
<path d="M4951 7344 c0 -11 3 -14 6 -6 3 7 2 16 -1 19 -3 4 -6 -2 -5 -13z"/>
<path d="M5013 7326 c5 -16 27 -19 27 -3 0 7 -7 14 -15 14 -9 0 -14 -5 -12
-11z"/>
<path d="M3937 8263 c-3 -5 77 -7 176 -5 294 4 319 8 65 10 -130 1 -239 -1
-241 -5z"/>
<path d="M5203 8263 c65 -2 168 -2 230 0 62 1 9 3 -118 3 -126 0 -177 -2 -112
-3z"/>
<path d="M4024 7925 c0 -115 2 -161 3 -102 2 59 2 154 0 210 -1 56 -3 8 -3
-108z"/>
<path d="M3921 7784 c0 -11 3 -14 6 -6 3 7 2 16 -1 19 -3 4 -6 -2 -5 -13z"/>
<path d="M3836 7691 c-58 -59 -58 -59 -38 -77 17 -14 19 -21 10 -37 -12 -22 4
-47 17 -26 6 8 4 10 -5 4 -10 -6 -12 -4 -7 9 4 10 7 20 7 22 0 2 5 4 11 4 5 0
7 -6 3 -12 -5 -8 -1 -8 12 2 29 22 30 24 12 17 -17 -6 -58 22 -58 40 0 11 40
50 46 46 2 -2 4 0 3 3 -1 3 12 19 27 35 15 16 26 29 23 29 -3 0 -31 -27 -63
-59z"/>
<path d="M5569 7243 c-13 -16 -12 -17 4 -4 9 7 17 15 17 17 0 8 -8 3 -21 -13z"/>
<path d="M6258 8083 c12 -2 30 -2 40 0 9 3 -1 5 -23 4 -22 0 -30 -2 -17 -4z"/>
<path d="M6353 8083 c20 -2 54 -2 75 0 20 2 3 4 -38 4 -41 0 -58 -2 -37 -4z"/>
<path d="M5983 7773 c26 -2 68 -2 95 0 26 2 4 3 -48 3 -52 0 -74 -1 -47 -3z"/>
<path d="M5941 7643 l-1 -33 88 2 87 2 -82 3 c-80 4 -82 4 -86 31 -4 25 -4 24
-6 -5z"/>
<path d="M6463 7720 c-18 -11 -33 -22 -33 -25 0 -2 15 5 34 16 32 19 49 20
219 17 102 -2 180 0 174 4 -7 4 -91 8 -187 8 -157 0 -178 -2 -207 -20z"/>
<path d="M6897 7700 c7 -8 16 -27 22 -40 6 -17 10 -19 10 -8 1 9 -9 27 -21 40
-13 13 -18 17 -11 8z"/>
<path d="M6374 7648 l-19 -23 25 20 c14 11 27 21 29 22 2 2 0 3 -6 3 -5 0 -18
-10 -29 -22z"/>
<path d="M6810 6833 c0 -598 -1 -631 -18 -646 -17 -15 -59 -17 -398 -17 l-379
0 3 -106 c3 -97 5 -106 25 -113 23 -9 758 -4 814 5 18 3 41 16 53 31 20 25 20
35 18 612 -2 428 -4 518 -8 336 -3 -137 -7 -220 -9 -182 -2 37 -5 72 -6 77 -1
6 -3 13 -4 18 -2 4 -6 -2 -10 -13 -5 -12 -4 -26 3 -34 9 -12 8 -12 -11 0 -15
9 -18 16 -11 20 7 5 2 10 -15 14 -14 4 -28 14 -30 23 -3 10 -5 147 -6 307 -2
159 -4 292 -7 294 -2 2 -4 -279 -4 -626z m40 -28 c0 -33 -15 -33 -16 0 -1 14
2 25 7 25 5 0 9 -11 9 -25z"/>
<path d="M6922 7320 c0 -14 2 -19 5 -12 2 6 2 18 0 25 -3 6 -5 1 -5 -13z"/>
<path d="M6922 7220 c0 -19 2 -27 5 -17 2 9 2 25 0 35 -3 9 -5 1 -5 -18z"/>
<path d="M6885 7000 c3 -5 8 -10 11 -10 2 0 4 5 4 10 0 6 -5 10 -11 10 -5 0
-7 -4 -4 -10z"/>
<path d="M6851 6893 c0 -6 -4 -20 -7 -30 -5 -14 -4 -15 5 -7 7 7 11 20 8 30
-3 11 -5 14 -6 7z"/>
<path d="M6873 6858 c-2 -18 0 -20 7 -8 12 18 13 30 2 30 -4 0 -9 -10 -9 -22z"/>
<path d="M3930 7201 c0 -5 7 -12 16 -15 14 -5 15 -4 4 9 -14 17 -20 19 -20 6z"/>
<path d="M3579 8763 c-13 -16 -12 -17 4 -4 9 7 17 15 17 17 0 8 -8 3 -21 -13z"/>
<path d="M3789 8743 c-13 -16 -12 -17 4 -4 16 13 21 21 13 21 -2 0 -10 -8 -17
-17z"/>
<path d="M3524 8718 l-19 -23 23 19 c21 18 27 26 19 26 -2 0 -12 -10 -23 -22z"/>
<path d="M3714 8688 l-19 -23 23 19 c21 18 27 26 19 26 -2 0 -12 -10 -23 -22z"/>
<path d="M3464 8668 l-19 -23 23 19 c21 18 27 26 19 26 -2 0 -12 -10 -23 -22z"/>
<path d="M3365 8570 c-38 -38 -65 -69 -60 -69 10 1 142 139 134 139 -3 0 -36
-31 -74 -70z"/>
<path d="M3215 8399 c-36 -46 -43 -60 -29 -57 10 2 18 8 17 13 -2 18 17 45 32
45 8 0 14 3 13 8 -1 4 3 17 10 30 21 37 7 25 -43 -39z"/>
<path d="M7380 7785 c0 -5 5 -17 10 -25 5 -8 10 -10 10 -5 0 6 -5 17 -10 25
-5 8 -10 11 -10 5z"/>
<path d="M7461 7554 c0 -11 3 -14 6 -6 3 7 2 16 -1 19 -3 4 -6 -2 -5 -13z"/>
<path d="M7491 7444 c0 -11 3 -14 6 -6 3 7 2 16 -1 19 -3 4 -6 -2 -5 -13z"/>
<path d="M7501 7404 c0 -11 3 -14 6 -6 3 7 2 16 -1 19 -3 4 -6 -2 -5 -13z"/>
<path d="M7512 7360 c0 -14 2 -19 5 -12 2 6 2 18 0 25 -3 6 -5 1 -5 -13z"/>
<path d="M7371 7314 c0 -11 3 -14 6 -6 3 7 2 16 -1 19 -3 4 -6 -2 -5 -13z"/>
<path d="M7382 7270 c0 -14 2 -19 5 -12 2 6 2 18 0 25 -3 6 -5 1 -5 -13z"/>
<path d="M7402 7135 c0 -16 2 -22 5 -12 2 9 2 23 0 30 -3 6 -5 -1 -5 -18z"/>
</g>
</svg>
